<?xml version="1.0" encoding="UTF-8"?>
<svg xmlns="http://www.w3.org/2000/svg" width="1800" height="1050" viewBox="0 0 1800 1050">
<rect x="0" y="0" width="1800" height="1050" rx="0" fill="#07121f"/>
<line x1="40" y1="0" x2="40" y2="1050" stroke="#264052" stroke-width="1"/>
<line x1="120" y1="0" x2="120" y2="1050" stroke="#264052" stroke-width="1"/>
<line x1="200" y1="0" x2="200" y2="1050" stroke="#264052" stroke-width="1"/>
<line x1="280" y1="0" x2="280" y2="1050" stroke="#264052" stroke-width="1"/>
<line x1="360" y1="0" x2="360" y2="1050" stroke="#264052" stroke-width="1"/>
<line x1="440" y1="0" x2="440" y2="1050" stroke="#264052" stroke-width="1"/>
<line x1="520" y1="0" x2="520" y2="1050" stroke="#264052" stroke-width="1"/>
<line x1="600" y1="0" x2="600" y2="1050" stroke="#264052" stroke-width="1"/>
<line x1="680" y1="0" x2="680" y2="1050" stroke="#264052" stroke-width="1"/>
<line x1="760" y1="0" x2="760" y2="1050" stroke="#264052" stroke-width="1"/>
<line x1="840" y1="0" x2="840" y2="1050" stroke="#264052" stroke-width="1"/>
<line x1="920" y1="0" x2="920" y2="1050" stroke="#264052" stroke-width="1"/>
<line x1="1000" y1="0" x2="1000" y2="1050" stroke="#264052" stroke-width="1"/>
<line x1="1080" y1="0" x2="1080" y2="1050" stroke="#264052" stroke-width="1"/>
<line x1="1160" y1="0" x2="1160" y2="1050" stroke="#264052" stroke-width="1"/>
<line x1="1240" y1="0" x2="1240" y2="1050" stroke="#264052" stroke-width="1"/>
<line x1="1320" y1="0" x2="1320" y2="1050" stroke="#264052" stroke-width="1"/>
<line x1="1400" y1="0" x2="1400" y2="1050" stroke="#264052" stroke-width="1"/>
<line x1="1480" y1="0" x2="1480" y2="1050" stroke="#264052" stroke-width="1"/>
<line x1="1560" y1="0" x2="1560" y2="1050" stroke="#264052" stroke-width="1"/>
<line x1="1640" y1="0" x2="1640" y2="1050" stroke="#264052" stroke-width="1"/>
<line x1="1720" y1="0" x2="1720" y2="1050" stroke="#264052" stroke-width="1"/>
<line x1="0" y1="40" x2="1800" y2="40" stroke="#264052" stroke-width="1"/>
<line x1="0" y1="120" x2="1800" y2="120" stroke="#264052" stroke-width="1"/>
<line x1="0" y1="200" x2="1800" y2="200" stroke="#264052" stroke-width="1"/>
<line x1="0" y1="280" x2="1800" y2="280" stroke="#264052" stroke-width="1"/>
<line x1="0" y1="360" x2="1800" y2="360" stroke="#264052" stroke-width="1"/>
<line x1="0" y1="440" x2="1800" y2="440" stroke="#264052" stroke-width="1"/>
<line x1="0" y1="520" x2="1800" y2="520" stroke="#264052" stroke-width="1"/>
<line x1="0" y1="600" x2="1800" y2="600" stroke="#264052" stroke-width="1"/>
<line x1="0" y1="680" x2="1800" y2="680" stroke="#264052" stroke-width="1"/>
<line x1="0" y1="760" x2="1800" y2="760" stroke="#264052" stroke-width="1"/>
<line x1="0" y1="840" x2="1800" y2="840" stroke="#264052" stroke-width="1"/>
<line x1="0" y1="920" x2="1800" y2="920" stroke="#264052" stroke-width="1"/>
<line x1="0" y1="1000" x2="1800" y2="1000" stroke="#264052" stroke-width="1"/>
<text x="70" y="75" fill="#b9e769" font-family="DejaVu Sans, sans-serif" font-size="20" font-weight="700" text-anchor="start">FIG 09</text>
<text x="70" y="143" fill="#f4eddc" font-family="DejaVu Sans, sans-serif" font-size="48" font-weight="700" text-anchor="start">Final closed-set holdout</text>
<text x="72" y="182" fill="#91a4ae" font-family="DejaVu Sans, sans-serif" font-size="22" font-weight="400" text-anchor="start">One-shot and three-shot channel context with frozen fusion and identity-clustered uncertainty.</text>
<line x1="70" y1="205" x2="1730" y2="205" stroke="#264052" stroke-width="2"/>
<line x1="70" y1="990" x2="1730" y2="990" stroke="#264052" stroke-width="2"/>
<text x="70" y="1021" fill="#91a4ae" font-family="DejaVu Sans, sans-serif" font-size="16" font-weight="400" text-anchor="start">Source: actual final report | Public DogFace holdout; not lifelong biometric or deployment validation</text>
<text x="90" y="277" fill="#b9e769" font-family="DejaVu Sans, sans-serif" font-size="22" font-weight="700" text-anchor="start">ONE-SHOT</text>
<text x="90" y="312" fill="#91a4ae" font-family="DejaVu Sans, sans-serif" font-size="17" font-weight="400" text-anchor="start">125 identities  /  649 queries</text>
<text x="90" y="367" fill="#f4eddc" font-family="DejaVu Sans, sans-serif" font-size="17" font-weight="400" text-anchor="start">Appearance Rank-1</text>
<rect x="320" y="352" width="410" height="24" rx="12" fill="#0d1d2d" stroke="#264052" stroke-width="1"/>
<rect x="320" y="352" width="336.08628659476113" height="24" rx="12" fill="#ff775f"/>
<text x="745" y="366" fill="#ff775f" font-family="DejaVu Sans, sans-serif" font-size="18" font-weight="700" text-anchor="start">0.820</text>
<text x="90" y="435" fill="#f4eddc" font-family="DejaVu Sans, sans-serif" font-size="17" font-weight="400" text-anchor="start">Appearance MRR</text>
<rect x="320" y="420" width="410" height="24" rx="12" fill="#0d1d2d" stroke="#264052" stroke-width="1"/>
<rect x="320" y="420" width="358.69553380097153" height="24" rx="12" fill="#ff775f"/>
<text x="745" y="434" fill="#ff775f" font-family="DejaVu Sans, sans-serif" font-size="18" font-weight="700" text-anchor="start">0.875</text>
<text x="90" y="503" fill="#f4eddc" font-family="DejaVu Sans, sans-serif" font-size="17" font-weight="400" text-anchor="start">Face Rank-1</text>
<rect x="320" y="488" width="410" height="24" rx="12" fill="#0d1d2d" stroke="#264052" stroke-width="1"/>
<rect x="320" y="488" width="337.34976887519264" height="24" rx="12" fill="#53d8e8"/>
<text x="745" y="502" fill="#53d8e8" font-family="DejaVu Sans, sans-serif" font-size="18" font-weight="700" text-anchor="start">0.823</text>
<text x="90" y="571" fill="#f4eddc" font-family="DejaVu Sans, sans-serif" font-size="17" font-weight="400" text-anchor="start">Face MRR</text>
<rect x="320" y="556" width="410" height="24" rx="12" fill="#0d1d2d" stroke="#264052" stroke-width="1"/>
<rect x="320" y="556" width="358.8295914959844" height="24" rx="12" fill="#53d8e8"/>
<text x="745" y="570" fill="#53d8e8" font-family="DejaVu Sans, sans-serif" font-size="18" font-weight="700" text-anchor="start">0.875</text>
<text x="90" y="639" fill="#f4eddc" font-family="DejaVu Sans, sans-serif" font-size="17" font-weight="400" text-anchor="start">Fused Rank-1</text>
<rect x="320" y="624" width="410" height="24" rx="12" fill="#0d1d2d" stroke="#264052" stroke-width="1"/>
<rect x="320" y="624" width="336.08628659476113" height="24" rx="12" fill="#b9e769"/>
<text x="745" y="638" fill="#b9e769" font-family="DejaVu Sans, sans-serif" font-size="18" font-weight="700" text-anchor="start">0.820</text>
<text x="90" y="707" fill="#f4eddc" font-family="DejaVu Sans, sans-serif" font-size="17" font-weight="400" text-anchor="start">Fused MRR</text>
<rect x="320" y="692" width="410" height="24" rx="12" fill="#0d1d2d" stroke="#264052" stroke-width="1"/>
<rect x="320" y="692" width="358.69553380097153" height="24" rx="12" fill="#b9e769"/>
<text x="745" y="706" fill="#b9e769" font-family="DejaVu Sans, sans-serif" font-size="18" font-weight="700" text-anchor="start">0.875</text>
<rect x="90" y="810" width="760" height="100" rx="14" fill="#0d1d2d" stroke="#b9e769" stroke-width="2"/>
<text x="115" y="845" fill="#91a4ae" font-family="DejaVu Sans, sans-serif" font-size="17" font-weight="700" text-anchor="start">FUSED RANK-1 95% CI</text>
<text x="115" y="888" fill="#b9e769" font-family="DejaVu Sans, sans-serif" font-size="25" font-weight="700" text-anchor="start">0.820   [0.762, 0.878]</text>
<text x="940" y="277" fill="#b9e769" font-family="DejaVu Sans, sans-serif" font-size="22" font-weight="700" text-anchor="start">THREE-SHOT</text>
<text x="940" y="312" fill="#91a4ae" font-family="DejaVu Sans, sans-serif" font-size="17" font-weight="400" text-anchor="start">107 identities  /  404 queries</text>
<text x="940" y="367" fill="#f4eddc" font-family="DejaVu Sans, sans-serif" font-size="17" font-weight="400" text-anchor="start">Appearance Rank-1</text>
<rect x="1170" y="352" width="410" height="24" rx="12" fill="#0d1d2d" stroke="#264052" stroke-width="1"/>
<rect x="1170" y="352" width="388.68811881188117" height="24" rx="12" fill="#ff775f"/>
<text x="1595" y="366" fill="#ff775f" font-family="DejaVu Sans, sans-serif" font-size="18" font-weight="700" text-anchor="start">0.948</text>
<text x="940" y="435" fill="#f4eddc" font-family="DejaVu Sans, sans-serif" font-size="17" font-weight="400" text-anchor="start">Appearance MRR</text>
<rect x="1170" y="420" width="410" height="24" rx="12" fill="#0d1d2d" stroke="#264052" stroke-width="1"/>
<rect x="1170" y="420" width="396.49113716316685" height="24" rx="12" fill="#ff775f"/>
<text x="1595" y="434" fill="#ff775f" font-family="DejaVu Sans, sans-serif" font-size="18" font-weight="700" text-anchor="start">0.967</text>
<text x="940" y="503" fill="#f4eddc" font-family="DejaVu Sans, sans-serif" font-size="17" font-weight="400" text-anchor="start">Face Rank-1</text>
<rect x="1170" y="488" width="410" height="24" rx="12" fill="#0d1d2d" stroke="#264052" stroke-width="1"/>
<rect x="1170" y="488" width="388.68811881188117" height="24" rx="12" fill="#53d8e8"/>
<text x="1595" y="502" fill="#53d8e8" font-family="DejaVu Sans, sans-serif" font-size="18" font-weight="700" text-anchor="start">0.948</text>
<text x="940" y="571" fill="#f4eddc" font-family="DejaVu Sans, sans-serif" font-size="17" font-weight="400" text-anchor="start">Face MRR</text>
<rect x="1170" y="556" width="410" height="24" rx="12" fill="#0d1d2d" stroke="#264052" stroke-width="1"/>
<rect x="1170" y="556" width="396.4118635077793" height="24" rx="12" fill="#53d8e8"/>
<text x="1595" y="570" fill="#53d8e8" font-family="DejaVu Sans, sans-serif" font-size="18" font-weight="700" text-anchor="start">0.967</text>
<text x="940" y="639" fill="#f4eddc" font-family="DejaVu Sans, sans-serif" font-size="17" font-weight="400" text-anchor="start">Fused Rank-1</text>
<rect x="1170" y="624" width="410" height="24" rx="12" fill="#0d1d2d" stroke="#264052" stroke-width="1"/>
<rect x="1170" y="624" width="388.68811881188117" height="24" rx="12" fill="#b9e769"/>
<text x="1595" y="638" fill="#b9e769" font-family="DejaVu Sans, sans-serif" font-size="18" font-weight="700" text-anchor="start">0.948</text>
<text x="940" y="707" fill="#f4eddc" font-family="DejaVu Sans, sans-serif" font-size="17" font-weight="400" text-anchor="start">Fused MRR</text>
<rect x="1170" y="692" width="410" height="24" rx="12" fill="#0d1d2d" stroke="#264052" stroke-width="1"/>
<rect x="1170" y="692" width="396.49113716316685" height="24" rx="12" fill="#b9e769"/>
<text x="1595" y="706" fill="#b9e769" font-family="DejaVu Sans, sans-serif" font-size="18" font-weight="700" text-anchor="start">0.967</text>
<rect x="940" y="810" width="760" height="100" rx="14" fill="#0d1d2d" stroke="#b9e769" stroke-width="2"/>
<text x="965" y="845" fill="#91a4ae" font-family="DejaVu Sans, sans-serif" font-size="17" font-weight="700" text-anchor="start">FUSED RANK-1 95% CI</text>
<text x="965" y="888" fill="#b9e769" font-family="DejaVu Sans, sans-serif" font-size="25" font-weight="700" text-anchor="start">0.948   [0.914, 0.979]</text>
</svg>
