<?xml version="1.0" encoding="UTF-8"?>
<svg xmlns="http://www.w3.org/2000/svg" width="1800" height="1050" viewBox="0 0 1800 1050">
<rect x="0" y="0" width="1800" height="1050" rx="0" fill="#07121f"/>
<line x1="40" y1="0" x2="40" y2="1050" stroke="#264052" stroke-width="1"/>
<line x1="120" y1="0" x2="120" y2="1050" stroke="#264052" stroke-width="1"/>
<line x1="200" y1="0" x2="200" y2="1050" stroke="#264052" stroke-width="1"/>
<line x1="280" y1="0" x2="280" y2="1050" stroke="#264052" stroke-width="1"/>
<line x1="360" y1="0" x2="360" y2="1050" stroke="#264052" stroke-width="1"/>
<line x1="440" y1="0" x2="440" y2="1050" stroke="#264052" stroke-width="1"/>
<line x1="520" y1="0" x2="520" y2="1050" stroke="#264052" stroke-width="1"/>
<line x1="600" y1="0" x2="600" y2="1050" stroke="#264052" stroke-width="1"/>
<line x1="680" y1="0" x2="680" y2="1050" stroke="#264052" stroke-width="1"/>
<line x1="760" y1="0" x2="760" y2="1050" stroke="#264052" stroke-width="1"/>
<line x1="840" y1="0" x2="840" y2="1050" stroke="#264052" stroke-width="1"/>
<line x1="920" y1="0" x2="920" y2="1050" stroke="#264052" stroke-width="1"/>
<line x1="1000" y1="0" x2="1000" y2="1050" stroke="#264052" stroke-width="1"/>
<line x1="1080" y1="0" x2="1080" y2="1050" stroke="#264052" stroke-width="1"/>
<line x1="1160" y1="0" x2="1160" y2="1050" stroke="#264052" stroke-width="1"/>
<line x1="1240" y1="0" x2="1240" y2="1050" stroke="#264052" stroke-width="1"/>
<line x1="1320" y1="0" x2="1320" y2="1050" stroke="#264052" stroke-width="1"/>
<line x1="1400" y1="0" x2="1400" y2="1050" stroke="#264052" stroke-width="1"/>
<line x1="1480" y1="0" x2="1480" y2="1050" stroke="#264052" stroke-width="1"/>
<line x1="1560" y1="0" x2="1560" y2="1050" stroke="#264052" stroke-width="1"/>
<line x1="1640" y1="0" x2="1640" y2="1050" stroke="#264052" stroke-width="1"/>
<line x1="1720" y1="0" x2="1720" y2="1050" stroke="#264052" stroke-width="1"/>
<line x1="0" y1="40" x2="1800" y2="40" stroke="#264052" stroke-width="1"/>
<line x1="0" y1="120" x2="1800" y2="120" stroke="#264052" stroke-width="1"/>
<line x1="0" y1="200" x2="1800" y2="200" stroke="#264052" stroke-width="1"/>
<line x1="0" y1="280" x2="1800" y2="280" stroke="#264052" stroke-width="1"/>
<line x1="0" y1="360" x2="1800" y2="360" stroke="#264052" stroke-width="1"/>
<line x1="0" y1="440" x2="1800" y2="440" stroke="#264052" stroke-width="1"/>
<line x1="0" y1="520" x2="1800" y2="520" stroke="#264052" stroke-width="1"/>
<line x1="0" y1="600" x2="1800" y2="600" stroke="#264052" stroke-width="1"/>
<line x1="0" y1="680" x2="1800" y2="680" stroke="#264052" stroke-width="1"/>
<line x1="0" y1="760" x2="1800" y2="760" stroke="#264052" stroke-width="1"/>
<line x1="0" y1="840" x2="1800" y2="840" stroke="#264052" stroke-width="1"/>
<line x1="0" y1="920" x2="1800" y2="920" stroke="#264052" stroke-width="1"/>
<line x1="0" y1="1000" x2="1800" y2="1000" stroke="#264052" stroke-width="1"/>
<text x="70" y="75" fill="#b9e769" font-family="DejaVu Sans, sans-serif" font-size="20" font-weight="700" text-anchor="start">FIG 05</text>
<text x="70" y="143" fill="#f4eddc" font-family="DejaVu Sans, sans-serif" font-size="48" font-weight="700" text-anchor="start">Embedding geometry at final evaluation</text>
<text x="72" y="182" fill="#91a4ae" font-family="DejaVu Sans, sans-serif" font-size="22" font-weight="400" text-anchor="start">Nominal dimension is not the same as effective directional diversity.</text>
<line x1="70" y1="205" x2="1730" y2="205" stroke="#264052" stroke-width="2"/>
<line x1="70" y1="990" x2="1730" y2="990" stroke="#264052" stroke-width="2"/>
<text x="70" y="1021" fill="#91a4ae" font-family="DejaVu Sans, sans-serif" font-size="16" font-weight="400" text-anchor="start">Source: aggregate final embedding diagnostics | Effective rank is entropy rank; no eigenvalue spectrum is reconstructed</text>
<text x="100" y="276" fill="#91a4ae" font-family="DejaVu Sans, sans-serif" font-size="16" font-weight="700" text-anchor="start">REPRESENTATION</text>
<text x="650" y="276" fill="#91a4ae" font-family="DejaVu Sans, sans-serif" font-size="16" font-weight="700" text-anchor="start">EFFECTIVE / NOMINAL RANK</text>
<text x="1490" y="276" fill="#91a4ae" font-family="DejaVu Sans, sans-serif" font-size="16" font-weight="700" text-anchor="start">CENTROID NORM</text>
<text x="100" y="355" fill="#ff775f" font-family="DejaVu Sans, sans-serif" font-size="25" font-weight="700" text-anchor="start">Appearance 384D</text>
<rect x="650" y="335" width="430" height="28" rx="14" fill="#0d1d2d" stroke="#264052" stroke-width="1"/>
<rect x="650" y="335" width="69.91155596893313" height="28" rx="14" fill="#ff775f"/>
<text x="1100" y="350" fill="#f4eddc" font-family="DejaVu Sans, sans-serif" font-size="20" font-weight="400" text-anchor="start">62.4 / 384  (16.3%)</text>
<text x="1510" y="355" fill="#ff775f" font-family="DejaVu Sans, sans-serif" font-size="25" font-weight="700" text-anchor="start">0.4573</text>
<text x="100" y="500" fill="#53d8e8" font-family="DejaVu Sans, sans-serif" font-size="25" font-weight="700" text-anchor="start">Face baseline 384D</text>
<rect x="650" y="480" width="430" height="28" rx="14" fill="#0d1d2d" stroke="#264052" stroke-width="1"/>
<rect x="650" y="480" width="69.72823595406183" height="28" rx="14" fill="#53d8e8"/>
<text x="1100" y="495" fill="#f4eddc" font-family="DejaVu Sans, sans-serif" font-size="20" font-weight="400" text-anchor="start">62.3 / 384  (16.2%)</text>
<text x="1510" y="500" fill="#53d8e8" font-family="DejaVu Sans, sans-serif" font-size="25" font-weight="700" text-anchor="start">0.4675</text>
<text x="100" y="645" fill="#b9e769" font-family="DejaVu Sans, sans-serif" font-size="25" font-weight="700" text-anchor="start">Face final 640D</text>
<rect x="650" y="625" width="430" height="28" rx="14" fill="#0d1d2d" stroke="#264052" stroke-width="1"/>
<rect x="650" y="625" width="41.837167094292425" height="28" rx="14" fill="#b9e769"/>
<text x="1100" y="640" fill="#f4eddc" font-family="DejaVu Sans, sans-serif" font-size="20" font-weight="400" text-anchor="start">62.3 / 640  (9.7%)</text>
<text x="1510" y="645" fill="#b9e769" font-family="DejaVu Sans, sans-serif" font-size="25" font-weight="700" text-anchor="start">0.5143</text>
<text x="100" y="790" fill="#f4a259" font-family="DejaVu Sans, sans-serif" font-size="25" font-weight="700" text-anchor="start">Regional 256D</text>
<rect x="650" y="770" width="430" height="28" rx="14" fill="#0d1d2d" stroke="#264052" stroke-width="1"/>
<rect x="650" y="770" width="32.01982338168226" height="28" rx="14" fill="#f4a259"/>
<text x="1100" y="785" fill="#f4eddc" font-family="DejaVu Sans, sans-serif" font-size="20" font-weight="400" text-anchor="start">19.1 / 256  (7.4%)</text>
<text x="1510" y="790" fill="#f4a259" font-family="DejaVu Sans, sans-serif" font-size="25" font-weight="700" text-anchor="start">1.0000</text>
<rect x="100" y="875" width="1590" height="70" rx="14" fill="#0d1d2d" stroke="#f4a259" stroke-width="2"/>
<text x="125" y="912" fill="#f4eddc" font-family="DejaVu Sans, sans-serif" font-size="20" font-weight="400" text-anchor="start">Regional directions are nearly co-linear in this cohort; diagnostics show collapse, not its cause.</text>
</svg>
