<?xml version="1.0" encoding="UTF-8"?>
<svg xmlns="http://www.w3.org/2000/svg" width="1800" height="1050" viewBox="0 0 1800 1050">
<rect x="0" y="0" width="1800" height="1050" rx="0" fill="#07121f"/>
<line x1="40" y1="0" x2="40" y2="1050" stroke="#264052" stroke-width="1"/>
<line x1="120" y1="0" x2="120" y2="1050" stroke="#264052" stroke-width="1"/>
<line x1="200" y1="0" x2="200" y2="1050" stroke="#264052" stroke-width="1"/>
<line x1="280" y1="0" x2="280" y2="1050" stroke="#264052" stroke-width="1"/>
<line x1="360" y1="0" x2="360" y2="1050" stroke="#264052" stroke-width="1"/>
<line x1="440" y1="0" x2="440" y2="1050" stroke="#264052" stroke-width="1"/>
<line x1="520" y1="0" x2="520" y2="1050" stroke="#264052" stroke-width="1"/>
<line x1="600" y1="0" x2="600" y2="1050" stroke="#264052" stroke-width="1"/>
<line x1="680" y1="0" x2="680" y2="1050" stroke="#264052" stroke-width="1"/>
<line x1="760" y1="0" x2="760" y2="1050" stroke="#264052" stroke-width="1"/>
<line x1="840" y1="0" x2="840" y2="1050" stroke="#264052" stroke-width="1"/>
<line x1="920" y1="0" x2="920" y2="1050" stroke="#264052" stroke-width="1"/>
<line x1="1000" y1="0" x2="1000" y2="1050" stroke="#264052" stroke-width="1"/>
<line x1="1080" y1="0" x2="1080" y2="1050" stroke="#264052" stroke-width="1"/>
<line x1="1160" y1="0" x2="1160" y2="1050" stroke="#264052" stroke-width="1"/>
<line x1="1240" y1="0" x2="1240" y2="1050" stroke="#264052" stroke-width="1"/>
<line x1="1320" y1="0" x2="1320" y2="1050" stroke="#264052" stroke-width="1"/>
<line x1="1400" y1="0" x2="1400" y2="1050" stroke="#264052" stroke-width="1"/>
<line x1="1480" y1="0" x2="1480" y2="1050" stroke="#264052" stroke-width="1"/>
<line x1="1560" y1="0" x2="1560" y2="1050" stroke="#264052" stroke-width="1"/>
<line x1="1640" y1="0" x2="1640" y2="1050" stroke="#264052" stroke-width="1"/>
<line x1="1720" y1="0" x2="1720" y2="1050" stroke="#264052" stroke-width="1"/>
<line x1="0" y1="40" x2="1800" y2="40" stroke="#264052" stroke-width="1"/>
<line x1="0" y1="120" x2="1800" y2="120" stroke="#264052" stroke-width="1"/>
<line x1="0" y1="200" x2="1800" y2="200" stroke="#264052" stroke-width="1"/>
<line x1="0" y1="280" x2="1800" y2="280" stroke="#264052" stroke-width="1"/>
<line x1="0" y1="360" x2="1800" y2="360" stroke="#264052" stroke-width="1"/>
<line x1="0" y1="440" x2="1800" y2="440" stroke="#264052" stroke-width="1"/>
<line x1="0" y1="520" x2="1800" y2="520" stroke="#264052" stroke-width="1"/>
<line x1="0" y1="600" x2="1800" y2="600" stroke="#264052" stroke-width="1"/>
<line x1="0" y1="680" x2="1800" y2="680" stroke="#264052" stroke-width="1"/>
<line x1="0" y1="760" x2="1800" y2="760" stroke="#264052" stroke-width="1"/>
<line x1="0" y1="840" x2="1800" y2="840" stroke="#264052" stroke-width="1"/>
<line x1="0" y1="920" x2="1800" y2="920" stroke="#264052" stroke-width="1"/>
<line x1="0" y1="1000" x2="1800" y2="1000" stroke="#264052" stroke-width="1"/>
<text x="70" y="75" fill="#b9e769" font-family="DejaVu Sans, sans-serif" font-size="20" font-weight="700" text-anchor="start">FIG 08</text>
<text x="70" y="143" fill="#f4eddc" font-family="DejaVu Sans, sans-serif" font-size="48" font-weight="700" text-anchor="start">Calibration selection</text>
<text x="72" y="182" fill="#91a4ae" font-family="DejaVu Sans, sans-serif" font-size="22" font-weight="400" text-anchor="start">One-shot channel context and three-shot OOF aggregation candidates.</text>
<line x1="70" y1="205" x2="1730" y2="205" stroke="#264052" stroke-width="2"/>
<line x1="70" y1="990" x2="1730" y2="990" stroke="#264052" stroke-width="2"/>
<text x="70" y="1021" fill="#91a4ae" font-family="DejaVu Sans, sans-serif" font-size="16" font-weight="400" text-anchor="start">Source: actual calibration report | Rank-1/MRR are aggregate closed-set calibration results</text>
<text x="90" y="273" fill="#91a4ae" font-family="DejaVu Sans, sans-serif" font-size="18" font-weight="700" text-anchor="start">ONE-SHOT OOF</text>
<text x="90" y="322" fill="#f4eddc" font-family="DejaVu Sans, sans-serif" font-size="17" font-weight="400" text-anchor="start">Appearance Rank-1</text>
<rect x="320" y="307" width="420" height="24" rx="12" fill="#0d1d2d" stroke="#264052" stroke-width="1"/>
<rect x="320" y="307" width="357.2495755517827" height="24" rx="12" fill="#ff775f"/>
<text x="755" y="321" fill="#ff775f" font-family="DejaVu Sans, sans-serif" font-size="18" font-weight="700" text-anchor="start">0.851</text>
<text x="90" y="384" fill="#f4eddc" font-family="DejaVu Sans, sans-serif" font-size="17" font-weight="400" text-anchor="start">Face Rank-1</text>
<rect x="320" y="369" width="420" height="24" rx="12" fill="#0d1d2d" stroke="#264052" stroke-width="1"/>
<rect x="320" y="369" width="355.82342954159594" height="24" rx="12" fill="#53d8e8"/>
<text x="755" y="383" fill="#53d8e8" font-family="DejaVu Sans, sans-serif" font-size="18" font-weight="700" text-anchor="start">0.847</text>
<text x="90" y="446" fill="#f4eddc" font-family="DejaVu Sans, sans-serif" font-size="17" font-weight="400" text-anchor="start">Fused Rank-1</text>
<rect x="320" y="431" width="420" height="24" rx="12" fill="#0d1d2d" stroke="#264052" stroke-width="1"/>
<rect x="320" y="431" width="357.2495755517827" height="24" rx="12" fill="#b9e769"/>
<text x="755" y="445" fill="#b9e769" font-family="DejaVu Sans, sans-serif" font-size="18" font-weight="700" text-anchor="start">0.851</text>
<text x="90" y="508" fill="#f4eddc" font-family="DejaVu Sans, sans-serif" font-size="17" font-weight="400" text-anchor="start">Appearance MRR</text>
<rect x="320" y="493" width="420" height="24" rx="12" fill="#0d1d2d" stroke="#264052" stroke-width="1"/>
<rect x="320" y="493" width="379.5688484290187" height="24" rx="12" fill="#ff775f"/>
<text x="755" y="507" fill="#ff775f" font-family="DejaVu Sans, sans-serif" font-size="18" font-weight="700" text-anchor="start">0.904</text>
<text x="90" y="570" fill="#f4eddc" font-family="DejaVu Sans, sans-serif" font-size="17" font-weight="400" text-anchor="start">Face MRR</text>
<rect x="320" y="555" width="420" height="24" rx="12" fill="#0d1d2d" stroke="#264052" stroke-width="1"/>
<rect x="320" y="555" width="378.4868165825754" height="24" rx="12" fill="#53d8e8"/>
<text x="755" y="569" fill="#53d8e8" font-family="DejaVu Sans, sans-serif" font-size="18" font-weight="700" text-anchor="start">0.901</text>
<text x="90" y="632" fill="#f4eddc" font-family="DejaVu Sans, sans-serif" font-size="17" font-weight="400" text-anchor="start">Fused MRR</text>
<rect x="320" y="617" width="420" height="24" rx="12" fill="#0d1d2d" stroke="#264052" stroke-width="1"/>
<rect x="320" y="617" width="379.5688484290187" height="24" rx="12" fill="#b9e769"/>
<text x="755" y="631" fill="#b9e769" font-family="DejaVu Sans, sans-serif" font-size="18" font-weight="700" text-anchor="start">0.904</text>
<line x1="890" y1="245" x2="890" y2="920" stroke="#264052" stroke-width="2"/>
<text x="950" y="273" fill="#91a4ae" font-family="DejaVu Sans, sans-serif" font-size="18" font-weight="700" text-anchor="start">THREE-SHOT CANDIDATE RANK-1</text>
<text x="950" y="322" fill="#f4eddc" font-family="DejaVu Sans, sans-serif" font-size="17" font-weight="400" text-anchor="start">LME t0.05</text>
<rect x="1180" y="307" width="380" height="24" rx="12" fill="#0d1d2d" stroke="#264052" stroke-width="1"/>
<rect x="1180" y="307" width="341.4492753623188" height="24" rx="12" fill="#f4a259"/>
<text x="1575" y="321" fill="#f4a259" font-family="DejaVu Sans, sans-serif" font-size="18" font-weight="700" text-anchor="start">0.899</text>
<text x="950" y="390" fill="#f4eddc" font-family="DejaVu Sans, sans-serif" font-size="17" font-weight="400" text-anchor="start">LME t0.1</text>
<rect x="1180" y="375" width="380" height="24" rx="12" fill="#0d1d2d" stroke="#264052" stroke-width="1"/>
<rect x="1180" y="375" width="342.5507246376812" height="24" rx="12" fill="#f4a259"/>
<text x="1575" y="389" fill="#f4a259" font-family="DejaVu Sans, sans-serif" font-size="18" font-weight="700" text-anchor="start">0.901</text>
<text x="950" y="458" fill="#f4eddc" font-family="DejaVu Sans, sans-serif" font-size="17" font-weight="400" text-anchor="start">LME t0.2</text>
<rect x="1180" y="443" width="380" height="24" rx="12" fill="#0d1d2d" stroke="#264052" stroke-width="1"/>
<rect x="1180" y="443" width="342.5507246376812" height="24" rx="12" fill="#f4a259"/>
<text x="1575" y="457" fill="#f4a259" font-family="DejaVu Sans, sans-serif" font-size="18" font-weight="700" text-anchor="start">0.901</text>
<text x="950" y="526" fill="#f4eddc" font-family="DejaVu Sans, sans-serif" font-size="17" font-weight="400" text-anchor="start">LME t0.5</text>
<rect x="1180" y="511" width="380" height="24" rx="12" fill="#0d1d2d" stroke="#264052" stroke-width="1"/>
<rect x="1180" y="511" width="342.5507246376812" height="24" rx="12" fill="#f4a259"/>
<text x="1575" y="525" fill="#f4a259" font-family="DejaVu Sans, sans-serif" font-size="18" font-weight="700" text-anchor="start">0.901</text>
<text x="950" y="594" fill="#f4eddc" font-family="DejaVu Sans, sans-serif" font-size="17" font-weight="400" text-anchor="start">max</text>
<rect x="1180" y="579" width="380" height="24" rx="12" fill="#0d1d2d" stroke="#264052" stroke-width="1"/>
<rect x="1180" y="579" width="346.95652173913044" height="24" rx="12" fill="#b9e769"/>
<text x="1575" y="593" fill="#b9e769" font-family="DejaVu Sans, sans-serif" font-size="18" font-weight="700" text-anchor="start">0.913</text>
<text x="950" y="662" fill="#f4eddc" font-family="DejaVu Sans, sans-serif" font-size="17" font-weight="400" text-anchor="start">mean</text>
<rect x="1180" y="647" width="380" height="24" rx="12" fill="#0d1d2d" stroke="#264052" stroke-width="1"/>
<rect x="1180" y="647" width="339.2463768115942" height="24" rx="12" fill="#f4a259"/>
<text x="1575" y="661" fill="#f4a259" font-family="DejaVu Sans, sans-serif" font-size="18" font-weight="700" text-anchor="start">0.893</text>
<text x="950" y="730" fill="#f4eddc" font-family="DejaVu Sans, sans-serif" font-size="17" font-weight="400" text-anchor="start">median</text>
<rect x="1180" y="715" width="380" height="24" rx="12" fill="#0d1d2d" stroke="#264052" stroke-width="1"/>
<rect x="1180" y="715" width="328.231884057971" height="24" rx="12" fill="#f4a259"/>
<text x="1575" y="729" fill="#f4a259" font-family="DejaVu Sans, sans-serif" font-size="18" font-weight="700" text-anchor="start">0.864</text>
<text x="950" y="798" fill="#f4eddc" font-family="DejaVu Sans, sans-serif" font-size="17" font-weight="400" text-anchor="start">top-k k2</text>
<rect x="1180" y="783" width="380" height="24" rx="12" fill="#0d1d2d" stroke="#264052" stroke-width="1"/>
<rect x="1180" y="783" width="342.5507246376812" height="24" rx="12" fill="#f4a259"/>
<text x="1575" y="797" fill="#f4a259" font-family="DejaVu Sans, sans-serif" font-size="18" font-weight="700" text-anchor="start">0.901</text>
<text x="950" y="895" fill="#b9e769" font-family="DejaVu Sans, sans-serif" font-size="20" font-weight="700" text-anchor="start">SELECTED  max   |   weights A/F = 1.00/0.00</text>
</svg>
